<?xml version="1.0" encoding="utf-8"?>

<!DOCTYPE svg PUBLIC "-//W3C//DTD SVG 1.1//EN" "http://www.w3.org/Graphics/SVG/1.1/DTD/svg11.dtd">
<svg version="1.1" id="Layer_1" xmlns="http://www.w3.org/2000/svg" xmlns:xlink="http://www.w3.org/1999/xlink" x="0px" y="0px"
	 viewBox="0 0 1466.0807 1664.2161" enable-background="new 0 0 1466.0807 1664.2161" xml:space="preserve">
<g>
	<polygon points="546.3276,340.169 590.3586,35.6094 571.8802,48.4662 558.2003,30.9603 514.1362,335.7498 527.816,353.2558 	"/>
	<polygon points="442.9086,582.9199 426.8563,598.9447 476.0769,599.0032 467.8729,655.7499 481.5528,673.2559 500.0644,660.1691 
		508.9017,599.0423 748.1335,599.3269 764.1857,583.302 747.9297,566.834 513.5984,566.5553 544.0954,355.6094 525.617,368.4662 
		511.9371,350.9602 480.7736,566.5162 426.895,566.4521 	"/>
	<polygon points="465.674,670.9603 421.6097,975.7499 435.2896,993.2559 453.8013,980.1691 497.8322,675.6094 479.3538,688.4663 	
		"/>
	<polygon points="410.8231,598.9257 426.8754,582.9008 410.6193,566.4328 89.5846,566.0509 105.5982,582.5186 89.546,598.5435 	"/>
	<polygon points="1060.5369,340.169 1104.5679,35.6094 1086.0894,48.4662 1072.4095,30.9603 1028.3453,335.7498 1042.0253,353.2558 
			"/>
	<polygon points="780.2189,583.3211 764.1667,599.3459 990.1977,599.6149 982.0821,655.7499 995.762,673.2559 1014.2736,660.1691 
		1023.0225,599.6539 1085.4438,599.7281 1101.4961,583.7032 1085.2401,567.2352 1027.7192,567.1668 1058.3047,355.6094 
		1039.8262,368.4662 1026.1464,350.9602 994.8943,567.1277 764.2053,566.8534 	"/>
	<polygon points="979.8831,670.9603 935.8189,975.7499 949.4988,993.2559 968.0104,980.1691 1012.0414,675.6094 993.5629,688.4663 	
		"/>
	<polygon points="1039.244,1042.9451 1055.2576,1059.4128 1039.2053,1075.4377 1360.4825,1075.8198 1376.5348,1059.795 
		1360.2787,1043.327 	"/>
	<polygon points="1039.2244,1059.3938 1022.9683,1042.9258 958.9485,1042.8496 965.7783,995.6094 947.2997,1008.4663 
		933.6199,990.9603 926.1238,1042.8105 701.9335,1042.5438 717.9472,1059.0116 701.895,1075.0365 921.4271,1075.2976 
		889.5557,1295.7499 903.2357,1313.2559 921.7473,1300.1691 954.2519,1075.3367 1023.1721,1075.4186 	"/>
	<polygon points="348.5514,1074.6161 364.6036,1058.5913 348.3476,1042.1233 27.3129,1041.7413 43.3265,1058.2091 27.2742,1074.234 
			"/>
	<polygon points="887.3568,1310.9602 843.2925,1615.7499 856.9725,1633.2559 875.4841,1620.1691 919.5151,1315.6095 
		901.0366,1328.4663 	"/>
	<polygon points="1422.5504,567.6365 1101.5157,567.2546 1117.5293,583.7224 1101.4771,599.7472 1422.7543,600.1293 
		1438.8065,584.1045 	"/>
	<polygon points="701.914,1058.9926 685.658,1042.5245 444.8278,1042.238 451.569,995.6094 433.0906,1008.4663 419.4108,990.9603 
		412.0031,1042.199 364.6232,1042.1426 380.6368,1058.6104 364.5846,1074.6353 407.3063,1074.686 375.3466,1295.7499 
		389.0264,1313.2559 407.5381,1300.1691 440.1311,1074.7251 685.8618,1075.0173 	"/>
	<polygon points="373.1476,1310.9602 329.0834,1615.7499 342.7632,1633.2559 361.2749,1620.1691 405.3058,1315.6095 
		386.8274,1328.4663 	"/>
</g>
</svg>
